<?xml version="1.0" encoding="UTF-8" standalone="no"?>
<!-- Created with Inkscape (http://www.inkscape.org/) -->
<svg xmlns:dc="http://purl.org/dc/elements/1.1/" xmlns:cc="http://creativecommons.org/ns#" xmlns:rdf="http://www.w3.org/1999/02/22-rdf-syntax-ns#" xmlns:svg="http://www.w3.org/2000/svg" xmlns="http://www.w3.org/2000/svg" xmlns:sodipodi="http://sodipodi.sourceforge.net/DTD/sodipodi-0.dtd" xmlns:inkscape="http://www.inkscape.org/namespaces/inkscape" width="19.844763mm" height="21.44838mm" viewBox="0 0 19.844763 21.44838" version="1.1" id="svg8" inkscape:version="0.92.4 (5da689c313, 2019-01-14)" sodipodi:docname="Weather_Icons_-_heath.svg">
  <defs id="defs2"/>
  <sodipodi:namedview id="base" pagecolor="#ffffff" bordercolor="#666666" borderopacity="1.0" inkscape:pageopacity="0.0" inkscape:pageshadow="2" inkscape:zoom="15.839192" inkscape:cx="30.887127" inkscape:cy="42.266504" inkscape:document-units="mm" inkscape:current-layer="layer1" showgrid="false" inkscape:window-width="1920" inkscape:window-height="1017" inkscape:window-x="-8" inkscape:window-y="-8" inkscape:window-maximized="1" fit-margin-top="0" fit-margin-left="0" fit-margin-right="0" fit-margin-bottom="0"/>
  <metadata id="metadata5">
    <rdf:RDF>
      <cc:Work rdf:about="">
        <dc:format>image/svg+xml</dc:format>
        <dc:type rdf:resource="http://purl.org/dc/dcmitype/StillImage"/>
        <dc:title/>
      </cc:Work>
    </rdf:RDF>
  </metadata>
  <g inkscape:label="Layer 1" inkscape:groupmode="layer" id="layer1" transform="translate(-39.689526,-135.43558)">
    <path style="stroke-width:0.26458332" d="m 49.404576,148.62161 v 2.04887 c -0.72824,0.25225 -1.249431,0.94529 -1.249431,1.75948 0,1.02753 0.824548,1.86365 1.852084,1.86365 1.027536,0 1.862933,-0.83612 1.862933,-1.86365 0,-0.81419 -0.521547,-1.50723 -1.250157,-1.75948 v -2.04887 z" id="path4556" inkscape:connector-curvature="0"/>
    <path style="stroke-width:0.26458332" d="m 50.007229,136.97664 c -0.448204,0.0112 -0.843424,0.15706 -1.158278,0.41671 -0.392642,0.32412 -0.64823,0.81223 -0.64823,1.37749 v 11.18195 c -0.786024,0.59044 -1.2461,1.48843 -1.24943,2.46559 -0.0033,1.29499 0.78715,2.3778 1.89766,2.836 0.359674,0.14854 0.746745,0.24086 1.158278,0.24309 0.370046,0.003 0.72742,-0.0655 1.052646,-0.18521 1.174591,-0.42819 1.993027,-1.56658 2.014141,-2.836 0.01593,-0.99457 -0.444126,-1.91858 -1.250157,-2.52347 v -11.26298 c 0,-0.59711 -0.303926,-1.09726 -0.763984,-1.40064 -0.295963,-0.19594 -0.656563,-0.3029 -1.041797,-0.31253 z m 0,0.79871 c 0.214471,0.006 0.424419,0.0647 0.589625,0.17363 0.256329,0.16927 0.429021,0.45413 0.429021,0.78713 v 11.66813 c 0.742681,0.37043 1.24943,1.13893 1.24943,2.02572 0,1.24903 -1.019402,2.25722 -2.268076,2.25722 -1.249045,0 -2.257953,-1.00819 -2.257953,-2.25722 0,-0.88642 0.507101,-1.65529 1.250156,-2.02572 v -11.6334 c 0,-0.31486 0.140648,-0.58359 0.359568,-0.76398 0.175207,-0.14485 0.398568,-0.22521 0.648229,-0.23151 z" id="path4542" inkscape:connector-curvature="0"/>
    <rect style="fill:#000000;fill-opacity:1;fill-rule:evenodd;stroke-width:0.26458335" id="rect4567" width="1.2232414" height="10.164731" x="49.396763" y="138.55711"/>
    <rect style="fill:#000000;fill-opacity:1;fill-rule:evenodd;stroke-width:0.26458332" id="rect4569" width="2.5513391" height="0.44884673" x="45.077709" y="142.25648"/>
    <rect style="fill:#000000;fill-opacity:1;fill-rule:evenodd;stroke-width:0.26458332" id="rect4569-0" width="2.5513391" height="0.44884673" x="45.054085" y="143.57941"/>
    <rect style="fill:#000000;fill-opacity:1;fill-rule:evenodd;stroke-width:0.26458332" id="rect4569-1" width="2.5513391" height="0.44884673" x="45.054085" y="144.83145"/>
    <rect style="fill:#000000;fill-opacity:1;fill-rule:evenodd;stroke-width:0.26458332" id="rect4569-3" width="2.5513391" height="0.44884673" x="45.03046" y="146.01262"/>
    <rect style="fill:none;fill-rule:evenodd;stroke-width:0.26458332" id="rect4598" width="19.844763" height="21.44838" x="39.689526" y="135.43558"/>
  </g>
</svg>